<svg version="1.1" id="Layer_1" xmlns="http://www.w3.org/2000/svg" xmlns:xlink="http://www.w3.org/1999/xlink" x="0px" y="0px"
	 width="100%" viewBox="0 0 906 190" enable-background="new 0 0 906 190" xml:space="preserve">
<path fill="#3B3B3B" opacity="1.000000" stroke="none" 
	d="
M667.000000,191.000000 
	C444.717255,191.000000 222.934509,191.000000 1.075883,191.000000 
	C1.075883,127.731773 1.075883,64.463432 1.075883,1.097547 
	C302.999969,1.097547 605.000000,1.097547 906.972534,1.097547 
	C906.972534,64.398788 906.972534,127.699402 906.972534,191.000000 
	C827.130066,191.000000 747.315063,191.000000 667.000000,191.000000 
M159.251434,122.534378 
	C164.923233,131.259064 170.595047,139.983765 176.598938,149.219284 
	C182.715179,139.763412 188.473770,130.860489 194.504242,121.989151 
	C194.504242,121.989151 194.777481,122.005600 195.164490,122.640175 
	C198.063568,130.416382 200.888077,138.222046 203.935776,145.939560 
	C204.438232,147.211899 205.884888,148.978241 206.953476,149.019867 
	C214.026352,149.295380 221.115158,149.162369 228.690521,149.162369 
	C227.914795,146.802841 227.420593,145.072632 226.783875,143.396591 
	C215.052444,112.514877 203.312866,81.636246 191.549179,50.766804 
	C189.840240,46.282242 189.185059,40.066231 185.895386,37.875996 
	C182.380875,35.536076 176.308792,37.180988 171.378769,36.775116 
	C167.881348,36.487186 166.219193,37.625534 164.927597,41.090031 
	C153.793823,70.954559 142.403519,100.723412 131.110718,130.528763 
	C128.833481,136.539139 126.645218,142.583237 124.209724,149.169388 
	C131.222260,149.169388 137.531067,148.998199 143.823822,149.241608 
	C146.968842,149.363266 148.520462,148.444977 149.568283,145.339279 
	C152.218857,137.483215 155.302460,129.773285 158.527649,121.993149 
	C158.527649,121.993149 158.841904,121.967834 159.251434,122.534378 
M233.616760,96.954941 
	C235.900955,128.528275 262.155182,153.362289 297.113403,149.662399 
	C329.502838,146.234390 351.495270,117.583099 347.009613,82.136223 
	C328.290649,82.136223 309.556946,82.136223 290.662720,82.136223 
	C290.662720,89.538002 290.662720,96.631119 290.662720,104.170654 
	C296.054535,104.170654 301.187744,104.170662 306.320984,104.170662 
	C311.581482,104.170662 316.841980,104.170654 322.199554,104.170654 
	C319.683960,116.276077 306.501831,126.613022 293.085876,127.465469 
	C277.608582,128.448898 263.364288,119.345665 258.151154,105.139435 
	C252.801743,90.561836 257.798859,74.120834 270.252594,65.019104 
	C276.565338,60.405495 283.680237,58.537071 291.361389,58.640007 
	C302.616669,58.790833 311.234497,64.326256 318.380951,72.684113 
	C324.575470,68.168121 330.437378,63.894619 336.281189,59.634304 
	C322.794800,39.971741 295.444794,31.088503 273.017853,38.753284 
	C247.852631,47.353924 231.895203,70.521523 233.616760,96.954941 
M670.837769,36.834511 
	C667.046997,36.948753 668.488525,39.889748 668.484131,41.660477 
	C668.399841,75.966942 668.417053,110.273666 668.430786,144.580338 
	C668.431335,146.016129 668.600342,147.451859 668.687622,148.835495 
	C676.354980,148.835495 683.586548,148.835495 691.334351,148.835495 
	C691.334351,118.468346 691.334351,88.434517 691.334351,57.776253 
	C699.502258,58.211971 707.184570,58.139160 714.717346,59.164940 
	C721.678650,60.112896 725.286255,65.177788 725.714294,72.593521 
	C726.118896,79.604774 722.625305,85.240494 716.028992,87.086311 
	C711.626099,88.318344 706.984741,88.698242 702.036987,89.528862 
	C702.036987,95.923767 701.966125,102.557762 702.101135,109.187561 
	C702.125977,110.404640 702.776001,111.749870 703.493530,112.790352 
	C711.330566,124.154678 719.216797,135.485336 727.165039,146.772095 
	C727.858032,147.756165 729.071106,149.021561 730.066711,149.043106 
	C738.455078,149.224609 746.849121,149.146561 756.102661,149.146561 
	C745.938904,134.679703 736.347107,121.026932 726.485168,106.989609 
	C734.581665,103.402695 741.036499,98.723595 744.937683,91.062248 
	C757.684509,66.030121 741.729004,38.094883 713.744873,37.055710 
	C699.773987,36.536907 685.771301,36.877247 670.837769,36.834511 
M567.070190,137.430908 
	C575.293518,145.529388 585.367981,149.503677 596.715271,149.911377 
	C622.491577,150.837524 642.372253,130.937347 642.632629,103.935570 
	C642.836548,82.781487 642.680786,61.623875 642.659546,40.467854 
	C642.658447,39.352745 642.421448,38.237877 642.295105,37.130547 
	C634.773865,37.130547 627.531128,37.130547 619.976624,37.130547 
	C619.976624,39.225426 619.976746,41.032787 619.976685,42.840145 
	C619.975952,63.496441 620.024719,84.152908 619.953003,104.808952 
	C619.918213,114.840431 614.195129,123.038315 605.447266,125.997124 
	C590.395081,131.088257 576.326050,120.831284 576.214294,104.452812 
	C576.073303,83.797470 576.178772,63.140453 576.177917,42.484158 
	C576.177856,40.713753 576.177917,38.943348 576.177917,37.175945 
	C568.360962,37.175945 561.135498,37.175945 553.815430,37.175945 
	C553.815430,60.993484 553.641724,84.468445 553.890625,107.938919 
	C554.010437,119.230476 558.634094,128.883392 567.070190,137.430908 
M529.255676,131.596603 
	C530.492798,127.151176 532.506714,122.760658 532.825562,118.250305 
	C533.903259,103.005356 526.024475,93.081047 512.645325,87.060570 
	C503.569611,82.976608 494.318085,79.285011 485.207886,75.275391 
	C481.215363,73.518181 478.784851,70.612434 479.649384,65.836426 
	C480.530640,60.967964 484.046265,58.442074 488.326477,58.208363 
	C492.990021,57.953716 498.092865,58.256313 502.352753,59.952263 
	C507.946472,62.179192 512.903442,66.005432 518.555054,69.396400 
	C522.765442,63.940804 527.192017,58.204971 531.612854,52.476612 
	C531.236755,51.871845 531.064026,51.354881 530.707397,51.060886 
	C528.911255,49.580280 527.139160,48.053577 525.228333,46.731575 
	C511.113007,36.966267 495.748901,32.519997 479.007111,38.095982 
	C466.433960,42.283543 458.152618,51.227486 456.543274,64.800209 
	C455.020508,77.642647 460.633392,87.493881 471.482849,94.148537 
	C476.116333,96.990540 481.275299,98.999199 486.264923,101.231331 
	C492.320648,103.940422 498.517212,106.341324 504.522614,109.153732 
	C508.337463,110.940300 510.156158,114.263161 509.776917,118.527863 
	C509.393341,122.841202 506.767731,125.499252 502.835205,126.800331 
	C493.129211,130.011566 483.998474,128.505066 475.956055,122.357178 
	C472.113037,119.419418 469.014923,115.507233 465.462585,111.918404 
	C460.403687,117.970978 455.630707,123.681442 450.831787,129.422989 
	C459.051971,139.055771 468.682709,145.806442 480.803833,148.654755 
	C500.981873,153.396332 519.137268,147.203949 529.255676,131.596603 
M43.997765,62.500004 
	C43.997765,91.257225 43.997765,120.014442 43.997765,148.933502 
	C51.728466,148.933502 58.971855,148.933502 66.784073,148.933502 
	C66.784073,118.671722 66.784073,88.639290 66.784073,57.814808 
	C74.801636,58.224388 82.290367,58.129517 89.632828,59.119507 
	C96.642326,60.064598 100.221092,65.024818 100.681328,72.487251 
	C101.116936,79.550217 97.677177,85.195984 91.150650,87.073380 
	C86.928436,88.287949 82.474083,88.695572 78.031631,89.481087 
	C78.031631,96.196060 78.031631,102.948044 78.031631,109.766403 
	C82.705841,109.766403 87.207993,110.240784 91.578880,109.684235 
	C110.451187,107.281212 121.615623,96.394936 123.469002,77.748550 
	C125.331383,59.011501 116.975197,40.205040 93.794838,37.801800 
	C77.646126,36.127575 61.219482,37.131821 44.916691,36.969685 
	C44.676918,36.967297 44.433273,37.354740 43.997620,37.724949 
	C43.997620,45.543941 43.997620,53.521976 43.997765,62.500004 
M812.500427,82.472435 
	C799.430908,82.472435 786.361328,82.472435 773.314209,82.472435 
	C773.314209,90.038597 773.314209,96.805038 773.314209,103.748932 
	C797.590576,103.748932 821.626648,103.748932 845.698730,103.748932 
	C845.698730,96.603050 845.698730,89.721687 845.698730,82.472496 
	C834.762817,82.472496 824.131653,82.472496 812.500427,82.472435 
M428.419922,104.012024 
	C430.209167,104.012024 431.998444,104.012024 433.915283,104.012024 
	C433.915283,96.664040 433.915283,89.779610 433.915283,82.769089 
	C409.714478,82.769089 385.814697,82.769089 361.701660,82.769089 
	C361.701660,89.965393 361.701660,96.859268 361.701660,104.012024 
	C383.821838,104.012024 405.630280,104.012024 428.419922,104.012024 
M413.499878,58.166851 
	C420.274841,58.166851 427.049805,58.166851 433.811707,58.166851 
	C433.811707,50.735649 433.811707,43.865021 433.811707,37.213249 
	C409.527802,37.213249 385.633514,37.213249 361.733154,37.213249 
	C361.733154,44.347382 361.733154,51.097279 361.733154,58.166851 
	C378.870056,58.166851 395.684967,58.166851 413.499878,58.166851 
M828.498840,58.164173 
	C834.249756,58.164173 840.000732,58.164173 845.749695,58.164173 
	C845.749695,50.736588 845.749695,43.978424 845.749695,37.177216 
	C821.466187,37.177216 797.431152,37.177216 773.359619,37.177216 
	C773.359619,44.270393 773.359619,51.019669 773.359619,58.164177 
	C791.585876,58.164177 809.542664,58.164177 828.498840,58.164173 
M412.499878,128.156570 
	C395.604431,128.156570 378.708984,128.156570 361.635864,128.156570 
	C361.635864,135.449173 361.635864,142.041534 361.635864,148.858261 
	C385.883240,148.858261 409.892639,148.858261 433.807556,148.858261 
	C433.807556,141.830002 433.807556,135.124176 433.807556,128.156570 
	C426.773621,128.156570 420.136719,128.156570 412.499878,128.156570 
M838.405212,128.158966 
	C816.693787,128.158966 794.982361,128.158966 773.350586,128.158966 
	C773.350586,135.574478 773.350586,142.171539 773.350586,148.875214 
	C797.641418,148.875214 821.661133,148.875214 845.650757,148.875214 
	C845.650757,141.860550 845.650757,135.147339 845.650757,128.158966 
	C843.326904,128.158966 841.352295,128.158966 838.405212,128.158966 
z"/>
<path fill="#FDFDFD" opacity="1.000000" stroke="none" 
	d="
M233.580170,96.509232 
	C231.895203,70.521523 247.852631,47.353924 273.017853,38.753284 
	C295.444794,31.088503 322.794800,39.971741 336.281189,59.634304 
	C330.437378,63.894619 324.575470,68.168121 318.380951,72.684113 
	C311.234497,64.326256 302.616669,58.790833 291.361389,58.640007 
	C283.680237,58.537071 276.565338,60.405495 270.252594,65.019104 
	C257.798859,74.120834 252.801743,90.561836 258.151154,105.139435 
	C263.364288,119.345665 277.608582,128.448898 293.085876,127.465469 
	C306.501831,126.613022 319.683960,116.276077 322.199554,104.170654 
	C316.841980,104.170654 311.581482,104.170662 306.320984,104.170662 
	C301.187744,104.170662 296.054535,104.170654 290.662720,104.170654 
	C290.662720,96.631119 290.662720,89.538002 290.662720,82.136223 
	C309.556946,82.136223 328.290649,82.136223 347.009613,82.136223 
	C351.495270,117.583099 329.502838,146.234390 297.113403,149.662399 
	C262.155182,153.362289 235.900955,128.528275 233.580170,96.509232 
z"/>
<path fill="#FCFCFC" opacity="1.000000" stroke="none" 
	d="
M671.310364,36.831745 
	C685.771301,36.877247 699.773987,36.536907 713.744873,37.055710 
	C741.729004,38.094883 757.684509,66.030121 744.937683,91.062248 
	C741.036499,98.723595 734.581665,103.402695 726.485168,106.989609 
	C736.347107,121.026932 745.938904,134.679703 756.102661,149.146561 
	C746.849121,149.146561 738.455078,149.224609 730.066711,149.043106 
	C729.071106,149.021561 727.858032,147.756165 727.165039,146.772095 
	C719.216797,135.485336 711.330566,124.154678 703.493530,112.790352 
	C702.776001,111.749870 702.125977,110.404640 702.101135,109.187561 
	C701.966125,102.557762 702.036987,95.923767 702.036987,89.528862 
	C706.984741,88.698242 711.626099,88.318344 716.028992,87.086311 
	C722.625305,85.240494 726.118896,79.604774 725.714294,72.593521 
	C725.286255,65.177788 721.678650,60.112896 714.717346,59.164940 
	C707.184570,58.139160 699.502258,58.211971 691.334351,57.776253 
	C691.334351,88.434517 691.334351,118.468346 691.334351,148.835495 
	C683.586548,148.835495 676.354980,148.835495 668.687622,148.835495 
	C668.600342,147.451859 668.431335,146.016129 668.430786,144.580338 
	C668.417053,110.273666 668.399841,75.966942 668.484131,41.660477 
	C668.488525,39.889748 667.046997,36.948753 671.310364,36.831745 
z"/>
<path fill="#FDFDFD" opacity="1.000000" stroke="none" 
	d="
M566.817139,137.179108 
	C558.634094,128.883392 554.010437,119.230476 553.890625,107.938919 
	C553.641724,84.468445 553.815430,60.993484 553.815430,37.175945 
	C561.135498,37.175945 568.360962,37.175945 576.177917,37.175945 
	C576.177917,38.943348 576.177856,40.713753 576.177917,42.484158 
	C576.178772,63.140453 576.073303,83.797470 576.214294,104.452812 
	C576.326050,120.831284 590.395081,131.088257 605.447266,125.997124 
	C614.195129,123.038315 619.918213,114.840431 619.953003,104.808952 
	C620.024719,84.152908 619.975952,63.496441 619.976685,42.840145 
	C619.976746,41.032787 619.976624,39.225426 619.976624,37.130547 
	C627.531128,37.130547 634.773865,37.130547 642.295105,37.130547 
	C642.421448,38.237877 642.658447,39.352745 642.659546,40.467854 
	C642.680786,61.623875 642.836548,82.781487 642.632629,103.935570 
	C642.372253,130.937347 622.491577,150.837524 596.715271,149.911377 
	C585.367981,149.503677 575.293518,145.529388 566.817139,137.179108 
z"/>
<path fill="#FDFDFD" opacity="1.000000" stroke="none" 
	d="
M529.092651,131.930939 
	C519.137268,147.203949 500.981873,153.396332 480.803833,148.654755 
	C468.682709,145.806442 459.051971,139.055771 450.831787,129.422989 
	C455.630707,123.681442 460.403687,117.970978 465.462585,111.918404 
	C469.014923,115.507233 472.113037,119.419418 475.956055,122.357178 
	C483.998474,128.505066 493.129211,130.011566 502.835205,126.800331 
	C506.767731,125.499252 509.393341,122.841202 509.776917,118.527863 
	C510.156158,114.263161 508.337463,110.940300 504.522614,109.153732 
	C498.517212,106.341324 492.320648,103.940422 486.264923,101.231331 
	C481.275299,98.999199 476.116333,96.990540 471.482849,94.148537 
	C460.633392,87.493881 455.020508,77.642647 456.543274,64.800209 
	C458.152618,51.227486 466.433960,42.283543 479.007111,38.095982 
	C495.748901,32.519997 511.113007,36.966267 525.228333,46.731575 
	C527.139160,48.053577 528.911255,49.580280 530.707397,51.060886 
	C531.064026,51.354881 531.236755,51.871845 531.612854,52.476612 
	C527.192017,58.204971 522.765442,63.940804 518.555054,69.396400 
	C512.903442,66.005432 507.946472,62.179192 502.352753,59.952263 
	C498.092865,58.256313 492.990021,57.953716 488.326477,58.208363 
	C484.046265,58.442074 480.530640,60.967964 479.649384,65.836426 
	C478.784851,70.612434 481.215363,73.518181 485.207886,75.275391 
	C494.318085,79.285011 503.569611,82.976608 512.645325,87.060570 
	C526.024475,93.081047 533.903259,103.005356 532.825562,118.250305 
	C532.506714,122.760658 530.492798,127.151176 529.092651,131.930939 
z"/>
<path fill="#FDFDFD" opacity="1.000000" stroke="none" 
	d="
M43.997692,62.000008 
	C43.997620,53.521976 43.997620,45.543941 43.997620,37.724949 
	C44.433273,37.354740 44.676918,36.967297 44.916691,36.969685 
	C61.219482,37.131821 77.646126,36.127575 93.794838,37.801800 
	C116.975197,40.205040 125.331383,59.011501 123.469002,77.748550 
	C121.615623,96.394936 110.451187,107.281212 91.578880,109.684235 
	C87.207993,110.240784 82.705841,109.766403 78.031631,109.766403 
	C78.031631,102.948044 78.031631,96.196060 78.031631,89.481087 
	C82.474083,88.695572 86.928436,88.287949 91.150650,87.073380 
	C97.677177,85.195984 101.116936,79.550217 100.681328,72.487251 
	C100.221092,65.024818 96.642326,60.064598 89.632828,59.119507 
	C82.290367,58.129517 74.801636,58.224388 66.784073,57.814808 
	C66.784073,88.639290 66.784073,118.671722 66.784073,148.933502 
	C58.971855,148.933502 51.728466,148.933502 43.997765,148.933502 
	C43.997765,120.014442 43.997765,91.257225 43.997692,62.000008 
z"/>
<path fill="#FDFDFD" opacity="1.000000" stroke="none" 
	d="
M158.212616,122.004814 
	C155.302460,129.773285 152.218857,137.483215 149.568283,145.339279 
	C148.520462,148.444977 146.968842,149.363266 143.823822,149.241608 
	C137.531067,148.998199 131.222260,149.169388 124.209724,149.169388 
	C126.645218,142.583237 128.833481,136.539139 131.110718,130.528763 
	C142.403519,100.723412 153.793823,70.954559 164.927597,41.090031 
	C166.219193,37.625534 167.881348,36.487186 171.378769,36.775116 
	C176.308792,37.180988 182.380875,35.536076 185.895386,37.875996 
	C189.185059,40.066231 189.840240,46.282242 191.549179,50.766804 
	C203.312866,81.636246 215.052444,112.514877 226.783875,143.396591 
	C227.420593,145.072632 227.914795,146.802841 228.690521,149.162369 
	C221.115158,149.162369 214.026352,149.295380 206.953476,149.019867 
	C205.884888,148.978241 204.438232,147.211899 203.935776,145.939560 
	C200.888077,138.222046 198.063568,130.416382 194.950607,121.958145 
	C188.761353,104.964951 182.785995,88.653793 176.343353,71.067131 
	C169.977386,88.952103 164.095001,105.478455 158.212616,122.004814 
z"/>
<path fill="#FAFAFA" opacity="1.000000" stroke="none" 
	d="
M813.000488,82.472466 
	C824.131653,82.472496 834.762817,82.472496 845.698730,82.472496 
	C845.698730,89.721687 845.698730,96.603050 845.698730,103.748932 
	C821.626648,103.748932 797.590576,103.748932 773.314209,103.748932 
	C773.314209,96.805038 773.314209,90.038597 773.314209,82.472435 
	C786.361328,82.472435 799.430908,82.472435 813.000488,82.472466 
z"/>
<path fill="#F9F9F9" opacity="1.000000" stroke="none" 
	d="
M427.929321,104.012024 
	C405.630280,104.012024 383.821838,104.012024 361.701660,104.012024 
	C361.701660,96.859268 361.701660,89.965393 361.701660,82.769089 
	C385.814697,82.769089 409.714478,82.769089 433.915283,82.769089 
	C433.915283,89.779610 433.915283,96.664040 433.915283,104.012024 
	C431.998444,104.012024 430.209167,104.012024 427.929321,104.012024 
z"/>
<path fill="#FEFEFE" opacity="1.000000" stroke="none" 
	d="
M412.999878,58.166851 
	C395.684967,58.166851 378.870056,58.166851 361.733154,58.166851 
	C361.733154,51.097279 361.733154,44.347382 361.733154,37.213249 
	C385.633514,37.213249 409.527802,37.213249 433.811707,37.213249 
	C433.811707,43.865021 433.811707,50.735649 433.811707,58.166851 
	C427.049805,58.166851 420.274841,58.166851 412.999878,58.166851 
z"/>
<path fill="#FFFFFF" opacity="1.000000" stroke="none" 
	d="
M827.999146,58.164177 
	C809.542664,58.164177 791.585876,58.164177 773.359619,58.164177 
	C773.359619,51.019669 773.359619,44.270393 773.359619,37.177216 
	C797.431152,37.177216 821.466187,37.177216 845.749695,37.177216 
	C845.749695,43.978424 845.749695,50.736588 845.749695,58.164173 
	C840.000732,58.164173 834.249756,58.164173 827.999146,58.164177 
z"/>
<path fill="#FCFCFC" opacity="1.000000" stroke="none" 
	d="
M412.999847,128.156570 
	C420.136719,128.156570 426.773621,128.156570 433.807556,128.156570 
	C433.807556,135.124176 433.807556,141.830002 433.807556,148.858261 
	C409.892639,148.858261 385.883240,148.858261 361.635864,148.858261 
	C361.635864,142.041534 361.635864,135.449173 361.635864,128.156570 
	C378.708984,128.156570 395.604431,128.156570 412.999847,128.156570 
z"/>
<path fill="#FCFCFC" opacity="1.000000" stroke="none" 
	d="
M838.891418,128.158966 
	C841.352295,128.158966 843.326904,128.158966 845.650757,128.158966 
	C845.650757,135.147339 845.650757,141.860550 845.650757,148.875214 
	C821.661133,148.875214 797.641418,148.875214 773.350586,148.875214 
	C773.350586,142.171539 773.350586,135.574478 773.350586,128.158966 
	C794.982361,128.158966 816.693787,128.158966 838.891418,128.158966 
z"/>
<path fill="#3E3E3E" opacity="1.000000" stroke="none" 
	d="
M158.370132,121.998978 
	C164.095001,105.478455 169.977386,88.952103 176.343353,71.067131 
	C182.785995,88.653793 188.761353,104.964951 194.757111,121.640854 
	C194.777481,122.005600 194.504242,121.989151 193.880783,121.927490 
	C181.785522,121.899826 170.313705,121.933830 158.841904,121.967834 
	C158.841904,121.967834 158.527649,121.993149 158.370132,121.998978 
z"/>
<path fill="#9A9A9A" opacity="1.000000" stroke="none" 
	d="
M159.046661,122.251106 
	C170.313705,121.933830 181.785522,121.899826 193.744843,121.911697 
	C188.473770,130.860489 182.715179,139.763412 176.598938,149.219284 
	C170.595047,139.983765 164.923233,131.259064 159.046661,122.251106 
z"/>
</svg>